<?xml version="1.0" encoding="utf-8"?><!-- Uploaded to: SVG Repo, www.svgrepo.com, Generator: SVG Repo Mixer Tools -->
<svg version="1.1" id="Uploaded to svgrepo.com" xmlns="http://www.w3.org/2000/svg" xmlns:xlink="http://www.w3.org/1999/xlink" 
	 width="800px" height="800px" viewBox="0 0 32 32" xml:space="preserve">
<style type="text/css">
	.linesandangles_een{fill:#111918;}
</style>
<path class="linesandangles_een" d="M25.609,20.046C25.868,19.423,26,18.71,26,18c0-3.589-2.068-6-4-6h-0.996v0.919
	c-0.001,0.006-0.103,0.518-0.921,1.507l-3.76-3.76l-3.243,1L4.707,3.293L3.293,4.707l8.373,8.374l-0.999,3.243L14.343,20H13
	c-2.206,0-4,1.794-4,4s1.794,4,4,4h12c2.206,0,4-1.794,4-4C29,22.001,27.527,20.341,25.609,20.046z M15.879,18.707l-2.293-2.293
	l0.707-0.707L16.586,18L15.879,18.707z M18,16.586l-2.293-2.293l0.707-0.707l2.293,2.293L18,16.586z M25,26H13c-1.103,0-2-0.897-2-2
	s0.897-2,2-2h2.414l5.293-5.293c1.015-1.015,1.583-1.829,1.9-2.439C23.263,14.79,24,16.067,24,18c0,0.807-0.317,2-1,2v2h2
	c1.103,0,2,0.897,2,2S26.103,26,25,26z"/>
</svg>