<?xml version="1.0" ?>
<!-- Uploaded to: SVG Repo, www.svgrepo.com, Generator: SVG Repo Mixer Tools -->
<svg fill="#000000" width="800px" height="800px" viewBox="0 0 64 64" xmlns="http://www.w3.org/2000/svg">
<g id="mouth">
<path d="M5.3384,17.8184a1,1,0,0,0,1.414,0l.7669-.767.7668.767A1,1,0,1,0,9.7,16.4043l-.767-.7671L9.7,14.87a1,1,0,1,0-1.4141-1.414l-.7668.7669-.7669-.7669a1,1,0,0,0-1.414,1.414l.7669.7671-.7669.7671A1,1,0,0,0,5.3384,17.8184Z"/>
<path d="M59,34c0-1.64-1.0942-3.1362-3.2539-4.4521a23.995,23.995,0,0,0-47.4922,0C6.0942,30.8638,5,32.36,5,34c0,1.7471,1.2407,3.3286,3.689,4.7041a23.9983,23.9983,0,0,0,46.622,0C57.7593,37.3286,59,35.7471,59,34Zm-5.5366,3.8213a21.9977,21.9977,0,0,1-42.9268,0,1.0009,1.0009,0,0,0-.5112-.667C8.0742,36.13,7,35.01,7,34c0-.9434.9482-1.9961,2.67-2.9644a1.0011,1.0011,0,0,0,.5025-.7495,21.9945,21.9945,0,0,1,43.6542,0,1.0011,1.0011,0,0,0,.5025.7495C56.0518,32.0039,57,33.0566,57,34c0,1.01-1.0742,2.13-3.0254,3.1543A1.0009,1.0009,0,0,0,53.4634,37.8213Z"/>
<path d="M56,53a3,3,0,1,0,3,3A3.0033,3.0033,0,0,0,56,53Zm0,4a1,1,0,1,1,1-1A1.0013,1.0013,0,0,1,56,57Z"/>
<circle cx="59" cy="45" r="1"/>
<path d="M51.2026,31.1074C46.1113,28.4585,39.2915,27,32,27s-14.1113,1.4585-19.2026,4.1074a1,1,0,0,0-.5264,1.044,19.9752,19.9752,0,0,0,39.458,0A1,1,0,0,0,51.2026,31.1074Zm-2.2882,3.9734c-.5718-.2369-1.1576-.4618-1.7615-.6728l.5856-2.6818c.6513.2588,1.2819.5339,1.887.827A18.17,18.17,0,0,1,48.9144,35.0808ZM24.7332,42.63l-.5217,2.6088a17.834,17.834,0,0,1-2.913-1.7594l1.06-1.9578A19.7219,19.7219,0,0,0,24.7332,42.63Zm1.9115.64A19.95,19.95,0,0,0,31,43.9718v2.9847a18.0487,18.0487,0,0,1-4.9031-.9476ZM33,43.9716A19.98,19.98,0,0,0,37.24,43.3l.5488,2.7446A18.0514,18.0514,0,0,1,33,46.9565Zm6.1548-1.2964a19.6825,19.6825,0,0,0,2.3921-1.1045l1.0686,1.9731a17.8331,17.8331,0,0,1-2.9368,1.7511Zm4.0309-9.4173L43.8,30.4427q1.0453.2748,2.0405.5983l-.6016,2.7551Q44.233,33.5045,43.1857,33.2579Zm-1.9564-.4163Q40.1306,32.636,39,32.4785v-2.99q1.4595.2069,2.8521.501ZM37,32.2441c-1.3138-.1274-2.6516-.1951-4-.221v-3c1.3557.0259,2.6949.0924,4,.2211Zm-6-.2212c-1.3483.0258-2.6857.0947-4,.2223v-3c1.3051-.1287,2.6443-.1952,4-.2211Zm-6,.4546q-1.1305.1562-2.23.3628l-.6225-2.8513q1.393-.2925,2.8521-.501Zm-4.1859.7792q-1.0485.2456-2.0537.5379l-.6012-2.7536q.9932-.3245,2.0405-.5983Zm-4.5526-1.5305.5853,2.68c-.6042.211-1.19.4365-1.7616.6733a18.1729,18.1729,0,0,1-.7107-2.5266C14.98,32.26,15.61,31.985,16.2615,31.7262Zm-.4154,5.2027c.2318-.0962.4649-.1912.7026-.2828A20.0818,20.0818,0,0,0,20.66,40.459l-.9307,1.7184A17.8432,17.8432,0,0,1,15.8461,36.9289ZM44.19,42.25,43.2521,40.52a20.07,20.07,0,0,0,4.1986-3.8763c.2388.0921.47.19.7029.2864A17.8414,17.8414,0,0,1,44.19,42.25Z"/>
<circle cx="39" cy="22" r="2"/>
<circle cx="25" cy="22" r="2"/>
</g>
</svg>