<?xml version="1.0" encoding="UTF-8" standalone="no"?>
<!-- Created with Inkscape (http://www.inkscape.org/) -->
<svg xmlns:dc="http://purl.org/dc/elements/1.1/" xmlns:cc="http://creativecommons.org/ns#" xmlns:rdf="http://www.w3.org/1999/02/22-rdf-syntax-ns#" xmlns:svg="http://www.w3.org/2000/svg" xmlns="http://www.w3.org/2000/svg" xmlns:sodipodi="http://sodipodi.sourceforge.net/DTD/sodipodi-0.dtd" xmlns:inkscape="http://www.inkscape.org/namespaces/inkscape" width="310.55377" height="350.68558" id="svg2" version="1.1" inkscape:version="0.92.4 (5da689c313, 2019-01-14)" sodipodi:docname="No Spitting - Bawal Dumura.svg">
  <title id="title4649">No Spitting - Bawal Dumura</title>
  <defs id="defs4">
    <inkscape:perspective sodipodi:type="inkscape:persp3d" inkscape:vp_x="0 : 250 : 1" inkscape:vp_y="0 : 1000 : 0" inkscape:vp_z="500 : 250 : 1" inkscape:persp3d-origin="250 : 166.66667 : 1" id="perspective55"/>
    <inkscape:perspective sodipodi:type="inkscape:persp3d" inkscape:vp_x="0 : 250 : 1" inkscape:vp_y="0 : 1000 : 0" inkscape:vp_z="500 : 250 : 1" inkscape:persp3d-origin="250 : 166.66667 : 1" id="perspective55-3"/>
  </defs>
  <sodipodi:namedview id="base" pagecolor="#ffffff" bordercolor="#666666" borderopacity="1.0" inkscape:pageopacity="0.0" inkscape:pageshadow="2" inkscape:zoom="0.49804687" inkscape:cx="-194.8827" inkscape:cy="-32.688995" inkscape:document-units="px" inkscape:current-layer="layer1" showgrid="false" inkscape:snap-object-midpoints="true" inkscape:snap-center="true" fit-margin-top="10" fit-margin-left="10" fit-margin-right="10" fit-margin-bottom="10" inkscape:window-width="1920" inkscape:window-height="1001" inkscape:window-x="-9" inkscape:window-y="-9" inkscape:window-maximized="1"/>
  <metadata id="metadata7">
    <rdf:RDF>
      <cc:Work rdf:about="">
        <dc:format>image/svg+xml</dc:format>
        <dc:type rdf:resource="http://purl.org/dc/dcmitype/StillImage"/>
        <dc:title>No Spitting - Bawal Dumura</dc:title>
        <cc:license rdf:resource="http://creativecommons.org/licenses/by-sa/4.0/"/>
      </cc:Work>
      <cc:License rdf:about="http://creativecommons.org/licenses/by-sa/4.0/">
        <cc:permits rdf:resource="http://creativecommons.org/ns#Reproduction"/>
        <cc:permits rdf:resource="http://creativecommons.org/ns#Distribution"/>
        <cc:requires rdf:resource="http://creativecommons.org/ns#Notice"/>
        <cc:requires rdf:resource="http://creativecommons.org/ns#Attribution"/>
        <cc:permits rdf:resource="http://creativecommons.org/ns#DerivativeWorks"/>
        <cc:requires rdf:resource="http://creativecommons.org/ns#ShareAlike"/>
      </cc:License>
    </rdf:RDF>
  </metadata>
  <g inkscape:label="Layer 1" inkscape:groupmode="layer" id="layer1" transform="translate(354.96694,-2248.3971)">
    <path style="fill:none;stroke:#000000;stroke-width:4.74307537;stroke-linecap:round;stroke-linejoin:round;stroke-miterlimit:4;stroke-dasharray:none;stroke-opacity:1" d="m -188.09247,2320.545 c 0,0 -38.11701,18.4681 -55.1564,30.8567 -19.27934,14.0172 -52.45643,48.5994 -52.45643,48.5994" id="path2996" inkscape:connector-curvature="0" sodipodi:nodetypes="cac"/>
    <path style="fill:none;stroke:#000000;stroke-width:2.37153769;stroke-linecap:round;stroke-linejoin:round;stroke-miterlimit:4;stroke-dasharray:none;stroke-opacity:1" d="m -211.81358,2322.2807 c 0,0 -27.32848,10.0915 -40.11374,16.9712 -16.86254,9.0736 -47.82792,31.821 -47.82792,31.821" id="path3766" inkscape:connector-curvature="0" sodipodi:nodetypes="cac"/>
    <path style="fill:none;stroke:#000000;stroke-width:2.37153769;stroke-linecap:round;stroke-linejoin:round;stroke-miterlimit:4;stroke-dasharray:none;stroke-opacity:1" d="m -263.30574,2382.2585 c 0,0 -8.84747,7.6911 -12.34269,12.3427 -3.04194,4.0483 -7.32847,13.3069 -7.32847,13.3069" id="path3768" inkscape:connector-curvature="0" sodipodi:nodetypes="cac"/>
    <path style="fill:#000000;fill-opacity:1;stroke:#000000;stroke-width:0.39525628;stroke-linecap:butt;stroke-linejoin:miter;stroke-miterlimit:4;stroke-dasharray:none;stroke-opacity:1" d="m -304.64805,2381.0943 c -11.96409,6.1791 -34.07264,-7.1327 -37.36504,11.3186 -0.78214,4.7336 2.32051,10.5458 6.5457,12.8187 14.87365,5.8315 20.69202,-9.8836 24.63187,-16.4995 3.93986,-6.6158 6.18747,-7.6378 6.18747,-7.6378 z" id="path3770" inkscape:connector-curvature="0" sodipodi:nodetypes="ccczc"/>
    <path style="fill:#ffffff;stroke:#000000;stroke-width:0.39525628;stroke-linecap:butt;stroke-linejoin:miter;stroke-miterlimit:4;stroke-dasharray:none;stroke-opacity:1" d="m -338.40603,2393.8434 c -1.60328,-9.059 6.3659,-9.819 14.35112,-8.885 -7.03377,1.1885 -13.16748,2.215 -14.35112,8.885 z" id="path3772" inkscape:connector-curvature="0" sodipodi:nodetypes="ccc"/>
    <path style="fill:#000000;fill-opacity:1;stroke:#000000;stroke-width:0.39525628;stroke-linecap:butt;stroke-linejoin:miter;stroke-miterlimit:4;stroke-dasharray:none;stroke-opacity:1" d="m -305.09956,2410.4467 c -9.64658,17.6233 11.13543,50.1894 -17.67038,55.0391 -7.38993,1.1521 -16.46386,-3.4181 -20.01225,-9.6419 -9.10404,-21.909 15.4301,-30.4795 25.75866,-36.283 10.32855,-5.8034 11.92397,-9.1142 11.92397,-9.1142 z" id="path3770-1" inkscape:connector-curvature="0" sodipodi:nodetypes="ccczc"/>
    <path style="fill:#ffffff;stroke:#000000;stroke-width:0.39525628;stroke-linecap:butt;stroke-linejoin:miter;stroke-miterlimit:4;stroke-dasharray:none;stroke-opacity:1" d="m -324.61528,2460.5951 c 11.34379,-1.1303 17.61681,-7.7901 13.03558,-21.8973 -2.41607,14.4131 -5.57895,16.2854 -13.03558,21.8973 z" id="path3772-7" inkscape:connector-curvature="0" sodipodi:nodetypes="ccc"/>
    <circle cx="-144.28885" cy="2296.8137" r="38.416588" id="circle3809" style="stroke-width:4.7084918"/>
    <path inkscape:connector-curvature="0" d="m -185.35427,2343.2086 c -27.20096,0 -44.244,22.1799 -44.244,49.8517 v 117.9469 c 0,22.9257 30.28651,22.9257 30.28651,0 V 2396.21 h 9.64672 l -0.0247,192.8727 c 11.45456,-0.7247 28.15138,-2.0601 43.08293,-4.3725 v -57.6827 h 9.59732 l -0.0247,56.0028 c 4.12588,-0.8252 7.94875,-1.7458 11.27715,-2.7668 9.0521,-2.7767 20.56837,-8.0805 31.793427,-13.8586 l 0.04941,-170.1949 h 9.449095 v 114.7849 c 0,23.0951 30.117745,23.0951 30.051828,0 V 2393.752 c 0,-25.5106 -14.989754,-50.5063 -44.836883,-50.5063 z" id="path3811" style="stroke-width:0.39525628"/>
  </g>
</svg>