<svg xmlns="http://www.w3.org/2000/svg" role="img" viewBox="458.34 559.34 1125.32 1178.32"><g id="imagebot_2"><g id="imagebot_36" stroke-dashoffset="0" stroke-miterlimit="4" stroke-width=".651" transform="matrix(29.249 0 0 28.6984 2185.49 -6432.68)"><path id="imagebot_1919" fill="#dceeee" stroke="#2d2d2d" stroke-width="2.99" d="M -171.01562 68.83789 C -174.29383 68.83789 -176.93359 71.47765 -176.93359 74.75586 L -176.93359 132.9668 C -200.34119 152.47892 -225.00548 185.81814 -217.22852 194.91602 C -206.02541 208.02197 -95.20425 208.57014 -83.70898 195.57617 C -75.5799 186.38725 -100.55033 151.71693 -123.90039 132.14844 L -123.90039 74.75586 C -123.90039 71.47765 -126.54015 68.83789 -129.81836 68.83789 L -171.01562 68.83789 z" transform="translate(0 229.267) scale(.26458)"/><rect id="imagebot_1920" width="14.032" height="2.619" x="-46.813" y="244.767" fill="#2d2d2d" stroke="#2d2d2d" stroke-width=".651" rx="1.018" ry="1.019"/><path id="imagebot_1921" fill="#ff2119" stroke-width="2.459" d="M -123.36133 136.01172 L -123.61914 142.01172 C -123.97452 150.29559 -124.55176 152.46493 -130.42969 153.69531 A 6.69239 6.69239 0 0 1 -130.32031 154.88281 A 6.69239 6.69239 0 0 1 -137.01367 161.57617 A 6.69239 6.69239 0 0 1 -143.67578 155.4668 C -145.61008 155.70942 -147.67244 155.97809 -150.00977 156.31836 C -152.54173 156.68697 -154.9209 157.11156 -157.15039 157.56836 A 3.94239 3.94239 0 0 1 -156.82031 159.13281 A 3.94239 3.94239 0 0 1 -160.76367 163.07617 A 3.94239 3.94239 0 0 1 -164.69727 159.36133 C -168.02346 160.25369 -170.91098 161.15567 -173.32227 161.93164 A 6.69239 6.69239 0 0 1 -180.01367 168.57617 A 6.69239 6.69239 0 0 1 -186.70508 161.88281 A 6.69239 6.69239 0 0 1 -180.57031 155.21875 C -178.83512 151.01823 -176.86133 146.36313 -176.86133 143.90234 C -176.86133 140.38828 -177.24567 137.51172 -177.71484 137.51172 C -179.28953 137.51172 -196.54793 156.07705 -202.88477 164.58789 C -210.37983 174.65431 -216.14407 186.18074 -215.68555 190.18359 C -215.43042 192.41077 -214.40522 193.47689 -210.86133 195.19922 C -205.45751 197.82548 -190.74092 200.33656 -174.36133 201.42578 C -139.62264 203.73586 -101.79434 201.08366 -88.98047 195.43945 C -84.63952 193.52736 -84.60394 193.46934 -85.15625 189.35156 C -86.48741 179.42705 -98.90769 160.66714 -114.66406 144.78125 L -123.36133 136.01172 z" transform="translate(0 229.267) scale(.26458)"/><circle id="imagebot_1922" cx="-35.325" cy="275.538" r="1.771" fill="#fff" stroke="#fff" stroke-width=".651"/><circle id="imagebot_1923" cx="-44.586" cy="275.141" r=".845" fill="#fff" stroke="#fff" stroke-width=".651"/><circle id="imagebot_1924" cx="-52.391" cy="277.655" r=".845" fill="#fff" stroke="#fff" stroke-width=".651"/><rect id="imagebot_1925" width="1.852" height="15.346" x="-38.761" y="249.375" fill="#fff" stroke="#fff" stroke-width=".651" opacity=".76" rx="1.018" ry="1.019"/></g></g></svg>