<?xml version="1.0" encoding="UTF-8" standalone="no"?>
<svg
   id="Layer_1"
   data-name="Layer 1"
   viewBox="0 0 98.569048 98.604548"
   version="1.1"
   sodipodi:docname="wee.svg"
   width="98.569046"
   height="98.604546"
   inkscape:version="1.4.2 (ebf0e940d0, 2025-05-08)"
   xmlns:inkscape="http://www.inkscape.org/namespaces/inkscape"
   xmlns:sodipodi="http://sodipodi.sourceforge.net/DTD/sodipodi-0.dtd"
   xmlns="http://www.w3.org/2000/svg"
   xmlns:svg="http://www.w3.org/2000/svg"
   xmlns:rdf="http://www.w3.org/1999/02/22-rdf-syntax-ns#"
   xmlns:cc="http://creativecommons.org/ns#"
   xmlns:dc="http://purl.org/dc/elements/1.1/">
  <sodipodi:namedview
     id="namedview3"
     pagecolor="#ffffff"
     bordercolor="#000000"
     borderopacity="0.25"
     inkscape:showpageshadow="2"
     inkscape:pageopacity="0.0"
     inkscape:pagecheckerboard="0"
     inkscape:deskcolor="#d1d1d1"
     inkscape:zoom="7.5764976"
     inkscape:cx="49.231191"
     inkscape:cy="49.297184"
     inkscape:window-width="3056"
     inkscape:window-height="1666"
     inkscape:window-x="0"
     inkscape:window-y="0"
     inkscape:window-maximized="0"
     inkscape:current-layer="Layer_1" />
  <defs
     id="defs1">
    <style
       id="style1">.cls-1{fill:#fff;}.cls-2{fill-rule:evenodd;}.cls-3{fill:#d92d27;}</style>
  </defs>
  <title
     id="title1">no-pee-urine</title>
  <path
     class="cls-2"
     d="m 64.010068,52.372783 -2.37,-0.11 c 1.94,3.56 0.55,8.06 -1.55,16 -1.56,5.91 2,8.66 6.44,19.57 0.85,2.08 1.13,1.94 1,4.19 l -17.29,-0.11 c -0.91,0 -2.39,-0.21 -1.85,-1.72 0.39,-1.12 5.2,-2.11 6.42,-2.47 -5.53,-9.21 -8.28,-15 -8.48,-29.26 0,-1.15 0.38,-1.85 0,-3.51 -0.15,-0.67 -1.53,-0.3 0,-1.81 0.38,-0.35 0.17,-1 0.11,-1.54 v 0 c -1.42,-10.16 -2.76,-17 0.33,-25 1.42,-3.69 7,-5.11 11.6,-4.4 a 3.65,3.65 0 0 1 1,0.18 l 0.23,0.07 a 11.84,11.84 0 0 1 2.15,0.75 40.79,40.79 0 0 1 7.39,3.59 44.07,44.07 0 0 1 8.73,7.33 3.85,3.85 0 0 1 0.21,5 v 0 a 34.67,34.67 0 0 1 -7.38,7.21 24,24 0 0 1 -6.49,3.23 l -0.15,2.8 z m -53.3,33.32 a 1.48,1.48 0 0 0 0.6,2.77 1.41,1.41 0 0 0 0.85,-0.19 3.28,3.28 0 0 1 1.89,-0.06 1.48,1.48 0 0 0 1.09,-2.7 1.51,1.51 0 0 0 -0.53,-0.21 5.64,5.64 0 0 0 -3.9,0.39 z m 33,-27.76 a 1.49,1.49 0 0 0 -1.68,-2.45 l -0.5,0.36 a 1.48,1.48 0 0 0 1.24,2.63 1.52,1.52 0 0 0 0.53,-0.25 z m -4.2,4.22 a 1.49,1.49 0 0 0 -1.71,-2.27 1.6,1.6 0 0 0 -0.7,0.53 c -0.61,0.84 -1.17,1.7 -1.7,2.6 a 1.49,1.49 0 0 0 2.17,1.94 1.63,1.63 0 0 0 0.39,-0.44 26.64,26.64 0 0 1 1.55,-2.36 z m -4.05,7.49 a 1.49,1.49 0 0 0 -2.07,-1.85 1.43,1.43 0 0 0 -0.69,0.76 c -0.39,1 -0.73,1.89 -1.07,2.86 a 1.52,1.52 0 0 0 0,0.87 1.48,1.48 0 0 0 2.83,0.08 c 0.31,-0.91 0.65,-1.81 1,-2.7 z m -2.59,8.26 a 1.483324,1.483324 0 0 0 -2.89,-0.67 c -0.23,1 -0.43,2 -0.62,3 a 1.49,1.49 0 0 0 2.74,1 1.4,1.4 0 0 0 0.17,-0.44 c 0.18,-1 0.37,-1.89 0.59,-2.84 z m -1.35,8.56 a 1.49,1.49 0 0 0 -2.89,-0.59 1.51,1.51 0 0 0 -0.07,0.37 c -0.08,1 -0.13,2 -0.14,3.06 a 1.5,1.5 0 0 0 3,0 c 0,-1 0.06,-1.91 0.13,-2.86 z m -1.89,9.79 a 1.49,1.49 0 0 0 1.62,-2.35 1.52,1.52 0 0 0 -0.66,-0.46 2.59,2.59 0 0 1 -0.38,-0.17 c -0.65,-0.34 -1.29,-0.74 -1.92,-1.12 a 1.4835262,1.4835262 0 1 0 -1.55,2.53 20.55,20.55 0 0 0 2.71,1.51 z m -7.92,-4.64 a 1.48,1.48 0 1 0 1.48,-2.56 c -0.87,-0.51 -1.76,-1 -2.66,-1.47 a 1.4848569,1.4848569 0 0 0 -1.36,2.64 c 0.86,0.44 1.7,0.91 2.54,1.39 z m 35.73,-88.1100002 a 8.64,8.64 0 1 1 -8.63,8.6300002 8.63,8.63 0 0 1 8.63,-8.6300002 z m 7.65,29.9400002 c -0.13,2.52 -0.28,5 -0.42,7.5 0.53,-0.3 1,-0.62 1.55,-1 a 23.24,23.24 0 0 0 3.48,-3 34.53,34.53 0 0 0 -4.61,-3.52 z"
     id="path2" />
  <metadata
     id="metadata3">
    <rdf:RDF>
      <cc:Work
         rdf:about="">
        <dc:title>no-pee-urine</dc:title>
      </cc:Work>
    </rdf:RDF>
  </metadata>
</svg>
