<?xml version="1.0" encoding="iso-8859-1"?>
<!-- Uploaded to: SVG Repo, www.svgrepo.com, Generator: SVG Repo Mixer Tools -->
<svg height="800px" width="800px" version="1.1" id="Layer_1" xmlns="http://www.w3.org/2000/svg" xmlns:xlink="http://www.w3.org/1999/xlink" 
	 viewBox="0 0 415.922 415.922" xml:space="preserve">
<g transform="translate(0 -1020.36)" shape-rendering="auto" image-rendering="auto" color-rendering="auto" color-interpolation="sRGB">
	<g>
		<path style="fill:#5A3392;" d="M328.109,1020.371c-0.281-0.015-0.562-0.015-0.843,0c-4.061,0.478-7.108,3.941-7.063,8.03v95.063
			l-72.406,30.625c-26.148,11.039-55.318,13.814-83.281,7.938l-122.719-29.314c-4.023-1.33-8.364,0.852-9.694,4.875
			s0.851,8.363,4.875,9.693c0.42,0.141,0.851,0.242,1.289,0.307l122.719,29.314c0.082,0.055,0.165,0.107,0.25,0.16
			c10.609,2.238,21.353,3.248,32.094,3.25c0.152,0.26,0.319,0.512,0.499,0.752l17.594,24.188
			c16.652,22.865,40.913,39.102,69.219,39.094h39l-15.406,183.217c-0.389,4.41,2.871,8.299,7.28,8.689
			c4.41,0.389,8.3-2.871,8.689-7.281l16.063-190.406c0.01-0.229,0.01-0.459,0-0.688v-104.469l43.219-18.252
			c3.912-1.629,5.764-6.119,4.136-10.031c-1.242-2.984-4.22-4.871-7.448-4.717l0,0c-0.937,0.039-1.858,0.252-2.719,0.623
			l-37.187,15.719v-88.281c0.037-4.416-3.513-8.026-7.929-8.063c-0.076-0.001-0.151-0.001-0.227,0.001L328.109,1020.371z
			 M320.203,1140.184v88.219H280.64c-22.179,0.004-41.887-12.746-56.344-32.594l-12.156-16.658
			c14.288-1.73,28.345-5.336,41.688-10.969l66.375-28V1140.184z"/>
		<path style="fill:#5A3392;" d="M198.183,1088.331c16.474,0,30,13.527,30,30s-13.526,30-30,30c-16.473,0-30-13.527-30-30
			S181.71,1088.331,198.183,1088.331L198.183,1088.331z"/>
	</g>
	<path style="fill:#29A3EC;" d="M198.183,1104.393c-7.826,0-13.936,6.111-13.936,13.938c0,7.828,6.11,14.057,13.936,14.057
		c7.827,0,14.056-6.229,14.056-14.057S206.01,1104.393,198.183,1104.393L198.183,1104.393z"/>
	<path style="fill:#3CDEF6;" d="M195.955,1106.929c-4.868,0-8.673,3.805-8.673,8.674s3.804,8.748,8.673,8.748
		c4.868,0,8.747-3.877,8.747-8.748C204.702,1110.735,200.826,1106.929,195.955,1106.929z"/>
</g>
</svg>